<svg xmlns="http://www.w3.org/2000/svg" viewBox="0 0 225.37 308.17"><defs><style>.cls-1{fill:#fff;stroke-width:9.95px;}.cls-1,.cls-2,.cls-3,.cls-4,.cls-5,.cls-6,.cls-7{stroke:#534444;stroke-miterlimit:10;}.cls-2,.cls-3,.cls-4{fill:#db9eb4;}.cls-2{stroke-width:7.24px;}.cls-3{stroke-width:6.35px;}.cls-4{stroke-width:6.39px;}.cls-5,.cls-6,.cls-7{fill:none;stroke-linecap:round;}.cls-5{stroke-width:13px;}.cls-6{stroke-width:5px;}.cls-7{stroke-width:12.08px;}</style></defs><g id="Layer_2" data-name="Layer 2"><g id="Layer_1-2" data-name="Layer 1"><ellipse class="cls-1" cx="112.68" cy="154.08" rx="107.71" ry="149.11"/><path class="cls-2" d="M49.79,117.28l15,1.61a1.7,1.7,0,0,0,1.77-2L58.06,62.18a.11.11,0,0,0-.22,0c-10.5,15.35-13.5,32.58-10.64,51.27A3.14,3.14,0,0,0,49.79,117.28Z"/><path class="cls-3" d="M48.28,179l12.42-2.38a1.51,1.51,0,0,1,1.61,1.74l-3.43,50.51a.1.1,0,0,1-.19,0c-9.8-13.39-13.46-29-12.32-46.22A2.88,2.88,0,0,1,48.28,179Z"/><path class="cls-2" d="M184.65,111.57,170.23,116a1.7,1.7,0,0,1-2.12-1.65l-2-55.31a.11.11,0,0,1,.22,0c13.21,13.09,19.41,29.44,20.13,48.33A3.15,3.15,0,0,1,184.65,111.57Z"/><path class="cls-4" d="M187.6,172.6,175,171.11a1.53,1.53,0,0,0-1.49,1.88l7.13,50.63c0,.13.17.13.19,0,8.82-14.22,11.35-30.17,8.94-47.47A2.9,2.9,0,0,0,187.6,172.6Z"/><path class="cls-5" d="M198.68,147.73c-10.4-7.58-27.6-8.82-38.45-1.18"/><path class="cls-5" d="M37.15,148.23c10.4-5.95,27.6-6.4,38.44-1.19"/><path class="cls-6" d="M50.21,162.71c.91.1,8.19,1.44,12.32-.76"/><path class="cls-6" d="M173.06,158.42c1.8,1.36,13.49,0,12.76-.26"/><path class="cls-7" d="M89.32,253.62c8.2,2.25,37.28,7.79,52.16-3.74"/></g></g></svg>