<svg xmlns="http://www.w3.org/2000/svg" viewBox="0 0 202.29 242.32"><defs><style>.cls-1{fill:#d29a68;}.cls-2{fill:#f2f0ed;}.cls-25,.cls-3{fill:#fcfcfc;}.cls-15,.cls-23,.cls-3,.cls-4,.cls-7{stroke:#393637;}.cls-15,.cls-16,.cls-23,.cls-3,.cls-4,.cls-7{stroke-miterlimit:10;}.cls-3,.cls-4{stroke-width:0.45px;}.cls-15,.cls-16,.cls-23,.cls-4,.cls-7{fill:none;}.cls-5{fill:#393637;}.cls-6{fill:#d34a4a;}.cls-7{stroke-width:0.7px;}.cls-8{fill:#fff;}.cls-9{fill:#936b80;}.cls-10{fill:#aaa;}.cls-11{fill:#fefefe;}.cls-12{fill:#a0a0a0;}.cls-13{fill:#f9f9f9;}.cls-14{fill:#363838;}.cls-15,.cls-23{stroke-linecap:round;}.cls-15{stroke-width:0.88px;}.cls-16{stroke:#8e8d8d;stroke-width:0.5px;}.cls-17{fill:#cecece;}.cls-18{fill:#595858;}.cls-19{fill:#cbcacb;}.cls-20{fill:#616060;}.cls-21{fill:#bd7279;}.cls-22{fill:#a2a2a2;}.cls-23{stroke-width:2.37px;}.cls-24{fill:#fdfdfd;}.cls-26{fill:#d96e28;}.cls-27{fill:#ffa060;}</style></defs><g id="Layer_2" data-name="Layer 2"><g id="Layer_1-2" data-name="Layer 1"><rect class="cls-1" x="49.37" y="48.18" width="5.11" height="80.23" transform="translate(-32.04 29.63) rotate(-24.6)"/><circle class="cls-2" cx="35.86" cy="53.22" r="19.15"/><ellipse class="cls-3" cx="39.03" cy="60.13" rx="11.74" ry="4.18" transform="translate(-21.49 21.7) rotate(-24.6)"/><line class="cls-4" x1="32.36" y1="59.28" x2="35.03" y2="66.05"/><line class="cls-4" x1="37.81" y1="56.2" x2="40.92" y2="63.94"/><line class="cls-4" x1="43.07" y1="54.52" x2="46.09" y2="60.84"/><circle class="cls-5" cx="28.26" cy="50.8" r="1.91"/><circle class="cls-5" cx="39.15" cy="45.81" r="1.91"/><path class="cls-5" d="M27.58,1.45,41.87,32.67a2.3,2.3,0,0,1-1,3.09L17.52,46.46a2.31,2.31,0,0,1-3-1.27L.24,14a2.3,2.3,0,0,1,1-3.09L24.59.18A2.31,2.31,0,0,1,27.58,1.45Z"/><path class="cls-6" d="M37.54,23.2l4.56,10a2,2,0,0,1-1.22,2.59L17.52,46.46a2,2,0,0,1-2.76-.77l-4.57-10Z"/><ellipse class="cls-5" cx="29.43" cy="41.63" rx="31.06" ry="2.21" transform="translate(-15.07 16.75) rotate(-25.53)"/><line class="cls-7" x1="45.39" y1="57.34" x2="68.68" y2="59.76"/><rect class="cls-1" x="65.47" y="55.06" width="6.42" height="9.39" rx="2.46" transform="translate(6.54 -6.78) rotate(5.93)"/><path class="cls-5" d="M183.78,157.68c20.5-35,24.06-68.89,10.23-77.07-14.06-8.32-41.07,12.47-59.27,50.31C117.37,167,111,200.6,124.51,208S163.51,192.24,183.78,157.68Z"/><ellipse class="cls-8" cx="177.17" cy="111.44" rx="28.15" ry="19.65" transform="translate(-4.06 216.15) rotate(-62.19)"/><ellipse class="cls-5" cx="173.22" cy="101.4" rx="2.36" ry="5.37" transform="translate(-3.95 195.73) rotate(-58.38)"/><ellipse class="cls-5" cx="170.4" cy="105.53" rx="0.41" ry="2.12" transform="translate(-8.81 195.29) rotate(-58.38)"/><ellipse class="cls-5" cx="185.42" cy="113.91" rx="0.41" ry="2.12" transform="translate(-8.8 212.06) rotate(-58.38)"/><ellipse class="cls-5" cx="187.73" cy="109.57" rx="2.36" ry="5.37" transform="translate(-1.02 217.37) rotate(-60)"/><path class="cls-9" d="M174.42,96.3s1.84,2.29,2.54,1.82a6.69,6.69,0,0,0,2.58-6.26.47.47,0,0,0-.67-.39c-3.83,1.83-4.46,3.77-4.45,4.91"/><path class="cls-9" d="M190.62,105.51s-3.1-.71-3-1.65A6.86,6.86,0,0,1,192,98.17a.53.53,0,0,1,.71.48c.34,4.75-1.11,6.34-2.18,6.89"/><path class="cls-9" d="M165.73,108.31s3,.43,3.34,1.37-4.6,10.83-7.66,14.2c-.32.36-.52-.11-.46-.6C162.54,111.29,165.66,108.33,165.73,108.31Z"/><path class="cls-9" d="M182.47,116.16s2.83,1,3,2-6.49,9.81-10.12,12.57c-.38.29-.49-.21-.34-.67C178.79,118.5,182.4,116.16,182.47,116.16Z"/><ellipse class="cls-5" cx="164.82" cy="131.58" rx="0.68" ry="3.57" transform="translate(-28.46 215.97) rotate(-62.19)"/><path class="cls-10" d="M135.66,124s23.83,44.77,11.06,64.34c0,0-13.27-2-13.61-4.08S129.53,124,129.53,124Z"/><path class="cls-10" d="M116.53,89.91c-.76-.29-1.54-.56-2.33-.8-.14-.68-.14-1.56.79-1.83,1.37-.39,3.08.59,3.4-5.54a18.32,18.32,0,0,0-.55-5.52c-.79-3-2.26-7.09-3.92-3.36C110,81.16,108,82,111.21,86.66a.91.91,0,0,1,.16.64,4.84,4.84,0,0,1-.22,1c-11-2.59-23.28-1.28-30.9.06a5.18,5.18,0,0,1-.25-1,1,1,0,0,1,.16-.64c3.17-4.66,1.23-5.5-2.71-13.8-1.65-3.73-3.13.33-3.92,3.36A18.31,18.31,0,0,0,73,81.74c.31,6.13,2,5.15,3.4,5.54.83.24.91,1,.82,1.62L75,89.38a5.49,5.49,0,0,0-3.3,2.28c-52.32,78.5-15.67,124-4.18,127s60.17,0,60.17,0C154,185,133.66,96.51,116.53,89.91Z"/><ellipse class="cls-11" cx="94.03" cy="168.29" rx="38.64" ry="39.83"/><path class="cls-12" d="M102.78,160.12a10.57,10.57,0,0,0-16.9,0c.94-4.58,4.36-8,8.45-8S101.83,155.54,102.78,160.12Z"/><path class="cls-12" d="M120.63,160.34a13,13,0,0,0-16.58-3.3,9,9,0,0,1,16.58,3.3Z"/><path class="cls-12" d="M112.34,169.79a13,13,0,0,0-16.58-3.3,9,9,0,0,1,16.58,3.3Z"/><path class="cls-12" d="M129,169.14a10.91,10.91,0,0,0-14-2.61,7.57,7.57,0,0,1,14,2.61Z"/><path class="cls-12" d="M92.8,167a8.68,8.68,0,0,0-12.47.16A6.39,6.39,0,0,1,92.8,167Z"/><path class="cls-12" d="M77.85,167.7a8.68,8.68,0,0,0-12.47.16,6.39,6.39,0,0,1,12.47-.16Z"/><path class="cls-12" d="M83.24,159.28a8.76,8.76,0,0,0-14.42,1.64c.33-4.25,2.9-7.66,6.38-8S82,155.22,83.24,159.28Z"/><circle class="cls-11" cx="78.57" cy="111.34" r="3.83"/><circle class="cls-13" cx="111.88" cy="111.34" r="3.83"/><circle class="cls-14" cx="79.78" cy="111.34" r="1.72"/><circle class="cls-14" cx="110.85" cy="111.34" r="1.72"/><path class="cls-5" d="M88.91,114c2.15-.48,8.14-1.53,13.19.22a.48.48,0,0,1,.14.85c-3.57,2.65-9.26,1.83-9.26,1.83a8.94,8.94,0,0,1-4.35-2.07A.49.49,0,0,1,88.91,114Z"/><path class="cls-15" d="M71.64,121.72c0-2-11.86-3.6-25.66-3.6"/><path class="cls-15" d="M46,125.85c0-2.24,11.1-4.06,25-4.12h.75"/><path class="cls-15" d="M71,121.73s-18.45,4.19-23.55,9.59"/><path class="cls-15" d="M115.77,121.72c0-2,11.86-3.6,25.66-3.6"/><path class="cls-15" d="M141.43,125.85c0-2.24-11.1-4.06-25-4.12h-.75"/><path class="cls-15" d="M116.46,121.73s18.45,4.19,23.55,9.59"/><path class="cls-5" d="M58,195.8a25.17,25.17,0,0,1-.89-3.16c-1.28-6.51-7.2-10.29-7.35-10.77a16.16,16.16,0,0,0-3.75-.43c-.35,0-.71,0-1.06,0h0l-.57.2-.15.06-.07,0-.28.12-.18.08,0,0c-.24.11-.51.25-.8.4l-.31.18-.38.22-.08.05-.09.06-.65.43h0c-.39.28-.78.58-1.18.93l-.15.12-.34.32-.18.17c-.21.21-.42.42-.62.65h0a13.85,13.85,0,0,0-.87,1.09l-.21.28c-.08.11-.15.23-.23.35a14.1,14.1,0,0,0-.84,1.49c-.14.27-.26.55-.38.83s-.13.33-.19.49l-.15.39s0,0,0,0l-.06.21a2.65,2.65,0,0,1-.11.3,55.66,55.66,0,0,1-2.08,5.57c-.35.84-.75,1.81-1.16,2.86l-.2.51-.24.62c-.17.44-.34.88-.51,1.34l0,.05c-.17.47-.35.94-.52,1.42l-.09.23c-.16.46-.33.93-.5,1.4a.75.75,0,0,1-.05.16q-.55,1.59-1.08,3.24c0,.12-.07.23-.1.34-.13.42-.26.84-.38,1.26l-.15.48c-.12.41-.24.82-.35,1.24l-.12.41c-.13.49-.26,1-.38,1.47-.06.26-.13.51-.19.77s-.12.49-.17.74-.14.59-.2.89c0,.06,0,.12,0,.18-.06.26-.11.52-.16.77l0,.15c-.15.8-.28,1.59-.39,2.36,0,.19-.06.38-.08.57s0,.23,0,.34c-.07.64-.13,1.28-.17,1.89.13.42.26.83.4,1.23,3.43,9.7,10.77,12.19,19.25,12.57,7.26.32,14.9-2.74,18.89-9.85v0a.06.06,0,0,1,0,0C67.57,210.64,64.36,214.9,58,195.8Z"/><path class="cls-16" d="M34.22,175.44c0-2-11.86-3.6-25.67-3.6"/><path class="cls-16" d="M8.55,179.57c0-2.24,11.11-4.06,25-4.13h.75"/><path class="cls-16" d="M33.53,175.44S15.08,179.64,10,185"/><path class="cls-16" d="M60,175.7c-.55-1.91,10.4-6.73,23.67-10.53"/><path class="cls-16" d="M85.8,172.59c-.61-2.15-11.79-.84-25.14,2.92l-.72.21"/><path class="cls-16" d="M60.66,175.51s18.89-1,25.28,2.74"/><path class="cls-5" d="M64.29,167.22c3.84,12-5.72,16.09-18.36,16s-21.23-4.12-18.35-16c2.18-9,8.09-16.35,18.35-16C56.37,151.6,61.91,159.85,64.29,167.22Z"/><path class="cls-17" d="M43.3,168.37c0,3-2,5.39-4.47,5.39s-5.62-.72-5.62-3.7S36.36,163,38.83,163,43.3,165.39,43.3,168.37Z"/><ellipse class="cls-18" cx="39.28" cy="168.37" rx="1.02" ry="3"/><path class="cls-19" d="M58.32,167.33c2.24,3.68-.59,6.43-3.87,6.45a5.27,5.27,0,0,1-5.2-4.85c-.35-3,1.4-5.64,3.92-5.94S56.76,164.76,58.32,167.33Z"/><ellipse class="cls-20" cx="52.98" cy="168.37" rx="1.18" ry="2.65"/><ellipse class="cls-21" cx="46.09" cy="173.35" rx="2.14" ry="0.99"/><path class="cls-5" d="M33.57,160.47s-3.83,4.53-8.43,1.41c-4.37-3-5.91-26.63-3.3-34a.57.57,0,0,1,1-.11c8.31,12.57,16.84,25.85,16.84,25.85Z"/><path class="cls-22" d="M22.48,134.15c-.31,4-1.14,18.09,2.36,24.48a1.44,1.44,0,0,0,1.55.72c4.92-1,6.4-3.15,6.83-4.63a3.07,3.07,0,0,0-.29-2.26L23.08,134A.32.32,0,0,0,22.48,134.15Z"/><path class="cls-5" d="M54.77,159.77s4.09,4.3,8.49.91c4.2-3.22,4.37-26.92,1.34-34.17a.58.58,0,0,0-1-.05c-7.57,13-15.31,26.78-15.31,26.78Z"/><path class="cls-22" d="M64.32,132.85c.54,4,2.18,18-.94,24.58a1.45,1.45,0,0,1-1.51.8c-5-.67-6.57-2.78-7.08-4.23a3,3,0,0,1,.16-2.27l8.77-19A.32.32,0,0,1,64.32,132.85Z"/><path class="cls-23" d="M2.66,188.15c10-2,25.71,1.64,20.51,13.6-3.88,8.92.23,17.95,8.83,26.77"/><circle class="cls-5" cx="145.1" cy="66.86" r="20.4"/><ellipse class="cls-24" cx="139.99" cy="59.89" rx="7.67" ry="5.92" transform="translate(18.13 151.18) rotate(-60)"/><ellipse class="cls-25" cx="152.63" cy="66.7" rx="7.67" ry="5.92" transform="translate(63.09 207.16) rotate(-81.09)"/><ellipse class="cls-5" cx="141.63" cy="58.51" rx="2.64" ry="2.4" transform="translate(50.33 181.58) rotate(-75.88)"/><ellipse class="cls-5" cx="152.63" cy="64.53" rx="2.64" ry="2.4" transform="translate(52.82 196.8) rotate(-75.88)"/><circle class="cls-5" cx="110.5" cy="42.86" r="12.59"/><ellipse class="cls-24" cx="105.26" cy="41.85" rx="3.66" ry="4.73" transform="translate(-6.66 24.39) rotate(-12.81)"/><ellipse class="cls-25" cx="113.85" cy="39.63" rx="3.66" ry="4.73" transform="matrix(0.83, -0.56, 0.56, 0.83, -2.75, 70.23)"/><ellipse class="cls-5" cx="105.43" cy="40.54" rx="1.48" ry="1.63" transform="translate(-6.52 55.59) rotate(-28.69)"/><ellipse class="cls-5" cx="112.93" cy="38.65" rx="1.48" ry="1.63" transform="translate(-4.69 58.96) rotate(-28.69)"/><circle class="cls-5" cx="139.99" cy="28.53" r="7.12"/><ellipse class="cls-24" cx="137.54" cy="26.77" rx="2.68" ry="2.07" transform="translate(82.81 155.76) rotate(-78.02)"/><ellipse class="cls-25" cx="142.47" cy="27.67" rx="2.07" ry="2.68" transform="translate(-2.58 22.9) rotate(-9.11)"/><ellipse class="cls-5" cx="137.94" cy="26.13" rx="0.84" ry="0.92" transform="translate(-1.46 9.44) rotate(-3.9)"/><ellipse class="cls-5" cx="142.24" cy="26.94" rx="0.84" ry="0.92" transform="translate(-1.5 9.73) rotate(-3.9)"/><path class="cls-26" d="M133.71,242.32c.32,0,28.13-2.37,20.24-31a.24.24,0,0,0-.46,0c-2.73,8.2-3.76,7.91-3.76,7.91s2.8-6.4-7.82-20.87a41.66,41.66,0,0,1-5.85-11c-2.37-6.89-.77-6.25-.31-12.92a.5.5,0,0,0-.82-.43c-2.88,2.38-12.05,11.15-15.47,28.45-5-6.7-11.64-6.7-11.64-6.7s6.79,4.5,2.77,22.43S119.14,242.21,133.71,242.32Z"/><path class="cls-27" d="M133.14,239.45c.25,0,22.83-1.92,16.43-25.17a.2.2,0,0,0-.38,0c-2.21,6.66-3.05,6.42-3.05,6.42s2.27-5.19-6.35-16.94a33.6,33.6,0,0,1-4.75-8.9c-1.93-5.6-.62-5.08-.25-10.5a.41.41,0,0,0-.66-.35c-2.34,1.94-9.79,9.06-12.57,23.11a12.76,12.76,0,0,0-9.44-5.45s5.51,3.66,2.24,18.21S121.31,239.36,133.14,239.45Z"/><circle class="cls-25" cx="123.15" cy="226.76" r="3.94"/><circle class="cls-5" cx="123.61" cy="225.78" r="1.68"/><circle class="cls-25" cx="140.04" cy="226.76" r="3.94"/><circle class="cls-5" cx="139.32" cy="225.95" r="1.68"/><path class="cls-26" d="M137.53,232.2c0,1.36-2.73,2.47-6.12,2.47s-6.12-1.11-6.12-2.47a.34.34,0,0,1,.07-.19h0a13,13,0,0,0,6.19,1.25,13.75,13.75,0,0,0,6-1.11A.07.07,0,0,1,137.53,232.2Z"/></g></g></svg>